<?xml version="1.0" standalone="no"?>
<!DOCTYPE svg PUBLIC "-//W3C//DTD SVG 20010904//EN"
 "http://www.w3.org/TR/2001/REC-SVG-20010904/DTD/svg10.dtd">
<svg version="1.0" xmlns="http://www.w3.org/2000/svg"
 width="1024.000000pt" height="1024.000000pt" viewBox="0 0 1024.000000 1024.000000"
 preserveAspectRatio="xMidYMid meet">

<g transform="translate(0.000000,1024.000000) scale(0.100000,-0.100000)"
fill="#000000" stroke="none">
<path d="M0 5120 l0 -5120 5120 0 5120 0 0 5120 0 5120 -5120 0 -5120 0 0
-5120z m5480 4589 c560 -39 1125 -191 1620 -435 512 -251 1022 -637 1394
-1055 638 -714 1034 -1617 1128 -2569 20 -207 17 -795 -6 -985 -66 -566 -198
-1011 -448 -1509 -438 -876 -1183 -1612 -2073 -2051 -521 -256 -1044 -399
-1639 -446 -190 -15 -642 -6 -826 16 -492 59 -981 194 -1384 383 -717 336
-1322 834 -1778 1463 -444 613 -747 1372 -832 2084 -97 813 14 1644 314 2345
326 763 814 1386 1466 1871 710 529 1488 823 2349 888 162 12 548 12 715 0z"/>
<path d="M4816 9500 c-1007 -79 -1891 -465 -2636 -1152 -654 -602 -1124 -1457
-1285 -2333 -61 -330 -69 -432 -70 -825 0 -381 4 -438 51 -730 90 -565 318
-1144 648 -1645 327 -498 729 -903 1221 -1230 604 -403 1228 -626 1975 -707
154 -16 670 -16 830 0 1169 122 2221 706 2967 1649 184 232 339 476 472 743
230 462 357 889 416 1400 22 186 30 626 16 825 -78 1073 -515 2028 -1267 2771
-698 690 -1583 1112 -2560 1220 -164 18 -623 26 -778 14z m33 -1172 c157 -296
288 -537 291 -537 3 -1 58 102 124 227 65 125 193 368 284 540 l165 312 324 0
324 0 -19 -27 c-10 -16 -68 -107 -127 -203 -149 -241 -577 -940 -697 -1137
l-98 -161 0 -406 0 -406 -285 0 -285 0 0 400 0 400 -243 397 c-223 364 -527
855 -655 1061 l-52 82 332 -2 331 -3 286 -537z m498 -2064 c475 -84 817 -439
899 -933 22 -136 15 -394 -15 -521 -54 -231 -148 -406 -301 -559 -163 -162
-365 -264 -614 -307 -137 -24 -358 -15 -491 21 -192 51 -355 143 -491 279 -97
97 -150 174 -216 311 -88 186 -124 379 -115 620 14 361 146 651 392 858 248
208 598 294 952 231z m-615 -2694 c42 -80 150 -286 240 -457 90 -172 165 -313
168 -312 3 0 111 205 240 456 129 250 240 457 245 459 6 3 144 3 307 2 l297
-3 -245 -395 c-135 -217 -324 -521 -420 -675 l-174 -279 0 -387 c0 -212 -3
-414 -6 -448 l-7 -61 -253 0 -254 0 0 440 0 440 -34 52 c-18 29 -203 327 -410
662 -208 335 -385 620 -393 633 l-15 23 318 -2 319 -3 77 -145z"/>
<path d="M5056 5848 c-186 -18 -340 -134 -431 -323 -63 -130 -76 -186 -82
-368 -8 -225 17 -356 99 -509 173 -326 612 -397 867 -141 162 163 243 434 212
716 -21 191 -82 341 -184 454 -123 135 -282 191 -481 171z"/>
</g>
</svg>
