<svg width="910" height="910" viewBox="0 0 910 910" fill="none" xmlns="http://www.w3.org/2000/svg">
<circle cx="455" cy="455" r="445" fill="black" stroke="white" stroke-width="20"/>
<path d="M429.664 227.65L344.514 85.95H401.714L455.989 177.6L509.939 85.95H566.814L480.689 228.95V318H429.664V227.65ZM392.398 462.95C392.398 472.7 393.481 482.233 395.648 491.55C398.031 500.65 401.715 508.883 406.698 516.25C411.681 523.617 418.181 529.575 426.198 534.125C434.215 538.458 443.965 540.625 455.448 540.625C466.931 540.625 476.681 538.458 484.698 534.125C492.715 529.575 499.215 523.617 504.198 516.25C509.181 508.883 512.756 500.65 514.923 491.55C517.306 482.233 518.498 472.7 518.498 462.95C518.498 452.767 517.306 442.908 514.923 433.375C512.756 423.842 509.181 415.392 504.198 408.025C499.215 400.442 492.715 394.483 484.698 390.15C476.681 385.6 466.931 383.325 455.448 383.325C443.965 383.325 434.215 385.6 426.198 390.15C418.181 394.483 411.681 400.442 406.698 408.025C401.715 415.392 398.031 423.842 395.648 433.375C393.481 442.908 392.398 452.767 392.398 462.95ZM341.373 462.95C341.373 445.617 343.973 429.583 349.173 414.85C354.373 399.9 361.848 386.9 371.598 375.85C381.348 364.8 393.265 356.133 407.348 349.85C421.648 343.567 437.681 340.425 455.448 340.425C473.431 340.425 489.465 343.567 503.548 349.85C517.631 356.133 529.548 364.8 539.298 375.85C549.048 386.9 556.523 399.9 561.723 414.85C566.923 429.583 569.523 445.617 569.523 462.95C569.523 479.85 566.923 495.667 561.723 510.4C556.523 524.917 549.048 537.592 539.298 548.425C529.548 559.258 517.631 567.817 503.548 574.1C489.465 580.167 473.431 583.2 455.448 583.2C437.681 583.2 421.648 580.167 407.348 574.1C393.265 567.817 381.348 559.258 371.598 548.425C361.848 537.592 354.373 524.917 349.173 510.4C343.973 495.667 341.373 479.85 341.373 462.95ZM429.664 747.65L344.514 605.95H401.714L455.989 697.6L509.939 605.95H566.814L480.689 748.95V838H429.664V747.65Z" fill="white"/>
</svg>
